<svg xmlns="http://www.w3.org/2000/svg" viewBox="0 0 172.89 86"><defs></defs><title>Fichier 8</title><g id="Calque_2" data-name="Calque 2"><g id="Layer_1" data-name="Layer 1"><path id="round" class="cls-1" d="M118.75,64A1.25,1.25,0,1,1,120,65.25,1.25,1.25,0,0,1,118.75,64Zm.5,0a.75.75,0,1,0,.75-.75A.77.77,0,0,0,119.25,64Z"/><path id="round-2" data-name="round" class="cls-1" d="M103.75,38A1.25,1.25,0,1,1,105,39.25,1.25,1.25,0,0,1,103.75,38Zm.5,0a.75.75,0,1,0,.75-.75A.77.77,0,0,0,104.25,38Z"/><path id="round-3" data-name="round" class="cls-1" d="M39.75,27A1.25,1.25,0,1,1,41,28.25,1.25,1.25,0,0,1,39.75,27Zm.5,0a.75.75,0,1,0,.75-.75A.77.77,0,0,0,40.25,27Z"/><path id="round-4" data-name="round" class="cls-1" d="M11.75,5A1.25,1.25,0,1,1,13,6.25,1.25,1.25,0,0,1,11.75,5Zm.5,0A.75.75,0,1,0,13,4.25.77.77,0,0,0,12.25,5Z"/><path id="round-5" data-name="round" class="cls-1" d="M102.5,1.25a1.25,1.25,0,1,1,1.25,1.25A1.25,1.25,0,0,1,102.5,1.25Zm.5,0a.75.75,0,1,0,.75-.75A.77.77,0,0,0,103,1.25Z"/><path id="round-6" data-name="round" class="cls-1" d="M17.75,80A1.25,1.25,0,1,1,19,81.25,1.25,1.25,0,0,1,17.75,80Zm.5,0a.75.75,0,1,0,.75-.75A.77.77,0,0,0,18.25,80Z"/><circle class="cls-1" cx="100.5" cy="53.5" r="0.5"/><circle class="cls-1" cx="51.5" cy="83.5" r="0.5"/><circle class="cls-1" cx="81.5" cy="3.5" r="0.5"/><circle class="cls-1" cx="111.5" cy="79.5" r="0.5"/><circle class="cls-1" cx="171.64" cy="8.05" r="0.5"/><circle class="cls-1" cx="0.5" cy="62.5" r="0.5"/><circle class="cls-1" cx="47.5" cy="40.5" r="0.5"/><circle class="cls-1" cx="76.5" cy="85.5" r="0.5"/><path id="round-7" data-name="round" class="cls-1" d="M75.75,40A1.25,1.25,0,1,1,77,41.25,1.25,1.25,0,0,1,75.75,40Zm.5,0a.75.75,0,1,0,.75-.75A.77.77,0,0,0,76.25,40Z"/><path id="round-8" data-name="round" class="cls-1" d="M170.39,36.75A1.25,1.25,0,1,1,171.64,38,1.25,1.25,0,0,1,170.39,36.75Zm.5,0a.75.75,0,1,0,.75-.75A.76.76,0,0,0,170.89,36.75Z"/><path id="round-9" data-name="round" class="cls-1" d="M75.75,40A1.25,1.25,0,1,1,77,41.25,1.25,1.25,0,0,1,75.75,40Zm.5,0a.75.75,0,1,0,.75-.75A.77.77,0,0,0,76.25,40Z"/><path id="round-10" data-name="round" class="cls-1" d="M75.75,40A1.25,1.25,0,1,1,77,41.25,1.25,1.25,0,0,1,75.75,40Zm.5,0a.75.75,0,1,0,.75-.75A.77.77,0,0,0,76.25,40Z"/><path id="round-11" data-name="round" class="cls-1" d="M75.75,40A1.25,1.25,0,1,1,77,41.25,1.25,1.25,0,0,1,75.75,40Zm.5,0a.75.75,0,1,0,.75-.75A.77.77,0,0,0,76.25,40Z"/><path id="round-12" data-name="round" class="cls-1 yo" d="M75.75,40A1.25,1.25,0,1,1,77,41.25,1.25,1.25,0,0,1,75.75,40Zm.5,0a.75.75,0,1,0,.75-.75A.77.77,0,0,0,76.25,40Z"/><circle class="cls-1" cx="167.35" cy="65.25" r="0.5"/><path id="round-13" data-name="round" class="cls-1" d="M149.28,32.8a1.25,1.25,0,1,1,1.25,1.25A1.25,1.25,0,0,1,149.28,32.8Zm.5,0a.75.75,0,1,0,.75-.75A.76.76,0,0,0,149.78,32.8Z"/></g></g></svg>